<?xml version="1.0" encoding="utf-8"?>
<!-- Generator: Adobe Illustrator 20.0.0, SVG Export Plug-In . SVG Version: 6.00 Build 0)  -->
<svg version="1.1" id="Layer_1" xmlns="http://www.w3.org/2000/svg" xmlns:xlink="http://www.w3.org/1999/xlink" x="0px" y="0px"
	 viewBox="0 0 448 248" style="enable-background:new 0 0 448 248;" xml:space="preserve">
<style type="text/css">
	.st0{fill:#B8DAD3;}
	.st1{fill:#FFFFFF;}
	.st2{fill:#EEA743;}
	.st3{fill:#4A505E;}
	.st4{fill:#04182C;}
	.st5{fill:#081E32;}
	.st6{fill:#CF8733;}
	.st7{fill:#EE7467;}
	.st8{fill:#FB937F;}
	.st9{fill:#131922;}
	.st10{fill:#0C1016;}
	.st11{fill:#E0F0ED;}
	.st12{fill:#93C781;}
	.st13{fill:#7FBD6E;}
	.st14{fill:#6B9F5A;}
	.st15{fill:#91CD7F;}
	.st16{fill:#B36856;}
	.st17{fill:#8A473B;}
	.st18{clip-path:url(#SVGID_2_);fill:#A4614F;}
	.st19{clip-path:url(#SVGID_2_);fill:#7C4136;}
	.st20{fill:#F7D0B4;}
	.st21{fill:#A85E48;}
	.st22{fill:#48191B;}
	.st23{fill:#99462F;}
	.st24{fill:#613434;}
</style>
<g>
	<polygon class="st0" points="198,0 198,18.4 198,37.7 198,88.5 198,96.7 245.9,96.7 361,96.7 361,73.8 361,65.7 361,0 198,0 	"/>
	<path class="st1" d="M299.4,89.2c-6.2,0-9.3-10.8-21-10.8c-13.6,0-21.8,14.3-29,18.3H361V73.8v-7.8c-4.5-1.3-9.6-2-15.3-1.9
		C309.2,65.4,309.8,89.2,299.4,89.2L299.4,89.2z"/>
	<path class="st1" d="M258.5,39.5c-3.6,0-3.2,2.5-5.6,2.5c-4.2,0.1-8.6-10-16.8-10c-6,0-7.6,5.6-10.8,5.6c-5.3,0-5.1-12.3-23.8-12.9
		c-1.2,0-2.4,0.1-3.5,0.2v12.8v8.2h65.2C263.2,45.9,262.1,39.5,258.5,39.5L258.5,39.5z"/>
	<path class="st2" d="M324.2,37.2c0-10.9-8.8-19.7-19.7-19.7c-10.9,0-19.7,8.8-19.7,19.7c0,10.9,8.8,19.7,19.7,19.7
		C315.3,56.9,324.2,48.1,324.2,37.2L324.2,37.2z"/>
	<polygon class="st3" points="148.1,247.7 151.8,247.7 129.3,178.6 126,179.6 148.1,247.7 	"/>
	<path class="st4" d="M142.9,248h28.2c0,0-0.8-3.7-2.9-4.2c-2.2-0.5-6.7,0-8.9-2.8c-2.3-2.8-2.8-5.9-4.1-6.2
		c-1.3-0.3-2.7,3.4-6.4,3.1c-3.7-0.3-4.9,0-4.9,0S142.6,245.2,142.9,248L142.9,248z"/>
	<polygon class="st0" points="188.5,137.1 168.1,241.7 174.7,241.7 195.2,137.1 188.5,137.1 	"/>
	<polygon class="st0" points="251,137.1 271.4,241.7 264.8,241.7 244.3,137.1 251,137.1 	"/>
	<polygon class="st3" points="70.3,248 66.6,248 89.1,178.6 92.4,179.6 70.3,248 	"/>
	<path class="st4" d="M179.5,231l-13.5,3.2l-17.4-61.1l-31.2-29.5l44.8,9.5c0,0,7.4,1.5,8.4,9.9C172.4,179.7,179.5,231,179.5,231
		L179.5,231z"/>
	<path class="st5" d="M162.5,157.5l-45.2-13.9c0,0-0.3,0.1-30.8,13.9c1.2,6.7,3.2,9,5.4,11.5c2.2,1.7,5.9,2.3,11.2,2.8
		c7.9,0.8,26.4,1.8,37.9,2.5l0.2,2.7l0.4,5.4l1.9,58l14.6-2.5c0,0,3.2-46.4,9.6-61.8C174,160.6,162.5,157.5,162.5,157.5L162.5,157.5
		z"/>
	<polygon class="st6" points="160,129.9 160,126.7 124,121 107.4,96.3 119.4,128.1 160,129.9 	"/>
	<path class="st7" d="M160.4,133.5c0,0-0.3-4.9,1.4-5c1.7-0.1,6.9-0.6,9.1-0.9c3.9-0.6,6.7,1,8,6
		C170.8,133.5,160.4,133.5,160.4,133.5L160.4,133.5z"/>
	<path class="st8" d="M151.2,133.5c0,0-0.3-5.1,1.5-5.2c1.7-0.1,7.2-0.6,9.5-1c4.1-0.7,7,1,8.3,6.2
		C162.1,133.5,151.2,133.5,151.2,133.5L151.2,133.5z"/>
	<path class="st4" d="M165.4,241.7l28.2,0c0,0-0.8-3.7-2.9-4.2c-2.2-0.5-6.7,0-8.9-2.8c-2.3-2.8-2.8-5.9-4.1-6.2
		c-1.3-0.3-2.7,3.4-6.4,3.1c-3.7-0.3-4.9,0-4.9,0S165.1,238.9,165.4,241.7L165.4,241.7z"/>
	<path class="st3" d="M248.4,133.5h-8.5c-1,0-1.8-0.8-1.8-1.8c0-1,0.8-1.8,1.8-1.8h8.5c0.9,0,2.4-0.8,3.2-2c0.5-0.9,0.6-1.7,0.1-2.7
		l-15.1-28.7c-0.5-0.9-0.1-1.9,0.7-2.4c0.9-0.4,1.9-0.1,2.4,0.7l15.1,28.7c1,2,1,4.2-0.2,6.1C253.3,132,250.7,133.5,248.4,133.5
		L248.4,133.5z"/>
	<path class="st9" d="M226.5,126.5l3.1,0.8c2.2,0.4,3.1-3,3.4-4l13-52.3c0.2-1,1.2-5.1-0.9-5.8l-3.1-0.8L226.5,126.5L226.5,126.5z"
		/>
	<polygon class="st8" points="112.9,84.9 104.9,102.5 92.2,93.4 104.4,72.5 111.6,71 112.9,84.9 	"/>
	<path class="st7" d="M112.4,86c0,0-7.5-1.2-7.9-5.2c-2,5.4,4.9,11.7,4.9,11.7L112.4,86L112.4,86z"/>
	<path class="st8" d="M104.6,83.3c0,0,9.7,6.5,11.7,5c2-1.5,6.3-13.1,4.9-22.1c-1.4-9.1-15.7-6-18.8-4.1
		C99.3,63.9,98.5,79.1,104.6,83.3L104.6,83.3z"/>
	<path class="st10" d="M98.3,83c0,0,7,0.1,3.9-10.1c-0.5-1.7-0.4-4.6,1.6-4.9c1.5-0.2,2.2,2.2,2.5,3.4c0.1,0.4,0,0.8,0.3,1
		c0.3,0.3,0.7,0.2,1,0.2c0.9,0,0.8-0.4,0.9-1.3c0.1-0.9,0.2-1.8,0.4-2.6c0.5-2.3,2.4-1.8,4-1.2c1.5,0.5,3.5,0.9,5,0.7
		c1-0.2,2.6-0.5,3.5-1.1c1.6-1.1,2.9-2.6,3.3-4.6c0.3-1.4,0-4.1-0.8-5.4c-1-1.6-4.1,0-7.1-1.6c-3.1-1.6-8-4.7-12.6-4.3
		c-6.2,0.6-8.9,5.9-8.9,5.9s-3.5,2.4-3.1,9.4C92.6,73.8,98.6,77.6,98.3,83L98.3,83z"/>
	<path class="st10" d="M118,74.6c0.1-0.5,0.4-0.9,0.7-0.9c0.3,0,0.5,0.5,0.4,1c-0.1,0.5-0.4,0.9-0.7,0.9
		C118.1,75.6,117.9,75.1,118,74.6L118,74.6z"/>
	<path class="st8" d="M121.1,74.3c0,0,1.6,5.5,1.2,6c-0.4,0.4-1.2,0.5-2.4,0.8C118.8,81.3,121.1,74.3,121.1,74.3L121.1,74.3z"/>
	<polygon class="st11" points="174.5,136.9 152.8,248 159.4,248 180.9,138 174.5,136.9 	"/>
	<polygon class="st11" points="264.3,136.9 286,248 279.4,248 257.9,138 264.3,136.9 	"/>
	<path class="st0" d="M308.1,139c0,1-0.8,1.8-1.8,1.8H133.1c-1,0-1.8-0.8-1.8-1.8v-3.7c0-1,0.8-1.8,1.8-1.8h173.2
		c1,0,1.8,0.8,1.8,1.8V139L308.1,139z"/>
	<path class="st2" d="M152.6,135v-6.8l-33.9-3.8c0,0-9.4-26.5-11.4-28.1c-2-1.5-4.1-3.8-12.7-7.3c-2.9,0-21.1,10.2-16.2,39
		c2.8,10.7,6.3,23.9,8.1,29.7c3.9,0.1,16.3-0.7,30.8-14.1c-0.5-4.7-0.6-5.6-0.6-5.6L152.6,135L152.6,135z"/>
	<path class="st9" d="M141.1,174.3c-11.5-0.6-30.1-1.7-38.1-2.5c-5.2-0.5-8.4-1.5-10.7-3.2c-2.6-2-3.9-5-5.5-9.7
		c-0.1-0.3-0.2-0.8-0.4-1.2c-1.8-5.8-5.3-19-8.1-29.7c-2.2-8.7-4-15.6-4-15.6c-0.3-1.9-2.1-3.2-4-2.9c-1.9,0.3-3.2,2.1-2.9,4
		c0,0,7.8,51.8,12.1,60.7c2.3,4.8,5.6,6.8,10,7.9c6.9,1.8,36.4,0.9,52,0.2L141.1,174.3L141.1,174.3z"/>
	<path class="st6" d="M108.1,135.7c-9.5-9.8-11.6-16.4-11.6-16.4s6.7,34.3,13,30.6c2.6-1.5,5.2-3.8,7.9-6.3
		c-0.5-4.7-0.6-5.6-0.6-5.6S110.8,138.6,108.1,135.7L108.1,135.7z"/>
	<path class="st12" d="M325,196.6l-0.9-0.3c-0.3,0.9-0.5,1.8-0.5,2.7c0,2.2,1,4.1,2.3,5.6c2.1,2.3,5.1,4,8,5.2c1.4,0.6,2.8,1,4,1.3
		c1.2,0.3,2.2,0.5,2.9,0.5c0.3,0,0.5,0,0.9-0.1c0.9-0.3,1.6-0.9,2.3-1.7c1-1.2,2-2.8,2.6-4.6c0.7-1.8,1.1-3.9,1.1-5.9
		c0-2.2-0.5-4.4-1.8-6.3c-1.3-1.9-3.4-3.4-6.4-4.2c-0.9-0.3-1.5-0.8-2-1.6c-0.8-1.2-1.2-3.1-1.7-5c-0.2-0.9-0.5-1.9-0.8-2.8
		c-0.3-0.9-0.8-1.7-1.4-2.4c-2.7-2.8-5.4-3.8-7.7-4.4c-1.1-0.3-2.1-0.5-3-0.8c-0.9-0.3-1.6-0.7-2.2-1.4c-1.3-1.4-2.3-2.4-3.2-3
		c-0.4-0.3-0.8-0.6-1.1-0.8c-0.4-0.2-0.7-0.3-1.1-0.3c-0.2,0-0.5,0.1-0.7,0.2c-0.4,0.2-0.6,0.5-0.7,0.8c-0.1,0.3-0.1,0.6-0.1,0.9
		c0,0.5,0.1,1,0.2,1.6c0.5,2.1,1.6,5,2.6,7.7c0.5,1.4,1,2.7,1.3,3.7c0.2,0.5,0.3,1,0.4,1.4c0.1,0.4,0.1,0.7,0.1,0.9v0v0v0.1
		c0,1.6,0.4,2.8,1.1,3.9c1,1.5,2.3,2.5,3.3,3.4c0.5,0.5,0.9,0.9,1.2,1.4c0.3,0.5,0.4,1,0.4,1.7c0,0.6-0.1,1.3-0.4,2.2L325,196.6
		l0.9,0.3c0.4-1.1,0.5-2,0.5-2.9c0-1.4-0.5-2.5-1.1-3.4c-1-1.3-2.3-2.2-3.3-3.2c-0.5-0.5-0.9-1-1.2-1.6c-0.3-0.6-0.5-1.3-0.5-2.2
		v-0.1v0v0c0-0.5-0.1-1-0.2-1.5c-0.5-2-1.6-4.8-2.6-7.6c-0.5-1.4-1-2.7-1.3-3.8c-0.3-1.1-0.5-2.1-0.5-2.5l0-0.2l0,0l-0.4-0.1
		l0.3,0.3c0.1-0.1,0.1-0.2,0.1-0.2l-0.4-0.1l0.3,0.3l-0.3-0.4v0.5c0.1,0,0.2,0,0.3-0.1l-0.3-0.4v0.5v-0.2l0,0.2l0,0v-0.2l0,0.2
		c0,0,0.1,0,0.4,0.2c0.7,0.4,1.9,1.4,3.7,3.3c0.9,0.9,1.9,1.5,2.9,1.9c1.6,0.6,3.2,0.8,4.8,1.4c1.6,0.6,3.3,1.5,5.1,3.3
		c0.5,0.5,0.9,1.4,1.3,2.5c0.5,1.7,0.9,3.7,1.6,5.6c0.4,0.9,0.8,1.8,1.4,2.6c0.6,0.8,1.5,1.4,2.6,1.6c2.6,0.7,4.2,1.9,5.3,3.4
		c1,1.5,1.5,3.3,1.5,5.2c0,2.3-0.7,4.8-1.7,6.7c-0.5,1-1,1.8-1.6,2.4c-0.5,0.6-1.1,1-1.5,1.1l0.1,0.2l0-0.2l0,0l0.1,0.2l0-0.2
		c0,0-0.1,0-0.2,0c-0.3,0-0.8-0.1-1.4-0.2c-2.2-0.4-5.8-1.6-8.7-3.4c-1.5-0.9-2.8-2-3.7-3.2c-0.9-1.2-1.4-2.4-1.4-3.8
		c0-0.6,0.1-1.3,0.4-2L325,196.6L325,196.6z"/>
	<path class="st13" d="M350.3,174.9c14.3,6,1.7,31.3-1.1,32.8c-6.4,3.5-30.5-6.2-21.5-23.8c3.4-6.7-6.6-13.5-7.1-19.7
		c-0.8-11.2,6.3-14.7,5.8-21.3c-1.9-25.7,10.2,8.2,14.8,12.3C348.6,161.8,339.5,170.3,350.3,174.9L350.3,174.9z"/>
	<path class="st14" d="M348.3,176.9c-14.8,4.5-5,31-2.4,32.8c6,4.1,31-2.8,23.9-21.3c-2.7-7,8-12.7,9.1-18.8c2-11-4.7-15.3-3.5-21.8
		c4.6-25.3-11,7-16,10.6C351.3,164.1,359.5,173.5,348.3,176.9L348.3,176.9z"/>
	<path class="st15" d="M336.8,178.7l-0.2-0.4c-1.8,1-3,2.3-3.8,3.8c-0.8,1.5-1.1,3.2-1.1,5c0,4,1.6,8.4,3.4,12
		c0.9,1.8,1.9,3.3,2.7,4.4c0.4,0.6,0.8,1.1,1.2,1.4c0.4,0.4,0.6,0.6,1,0.8c0.6,0.3,1.4,0.4,2.2,0.4c2.9,0,6.9-1.5,10.3-4
		c3.3-2.5,6-6.2,6-10.7c0-2.3-0.7-4.7-2.3-7.2c-0.5-0.8-0.7-1.7-0.7-2.6c0-2,1.2-4.4,2.5-6.7c1.3-2.3,2.6-4.6,2.6-6.9l0-0.1
		c-0.1-4.7-1.7-7.7-3.2-10.1c-0.8-1.2-1.5-2.3-2.1-3.4c-0.6-1.1-0.9-2.2-0.9-3.4c0-2.8-0.2-4.7-0.5-6c-0.1-0.6-0.3-1.1-0.5-1.5
		c-0.1-0.2-0.3-0.3-0.4-0.5c-0.2-0.1-0.4-0.2-0.6-0.2c-0.3,0-0.5,0.1-0.8,0.3c-0.4,0.3-0.8,0.8-1.1,1.3c-1.3,2.1-2.8,5.8-4.2,9.4
		c-0.7,1.8-1.4,3.5-2.1,4.9c-0.6,1.4-1.2,2.5-1.7,2.9c-1.8,1.9-2.3,4-2.2,5.8c0,1.7,0.3,3.4,0.3,4.9c0,1.1-0.2,2.1-0.7,3
		c-0.5,0.9-1.5,1.9-3.1,2.8L336.8,178.7l0.2,0.4c1.8-0.9,2.9-2,3.5-3.1c0.7-1.1,0.8-2.3,0.8-3.5c0-1.7-0.3-3.3-0.3-4.9
		c0-1.8,0.4-3.4,2-5.2c0.4-0.4,0.7-1,1.1-1.7c1.3-2.5,2.9-6.8,4.4-10.4c0.8-1.8,1.5-3.5,2.2-4.7c0.3-0.6,0.7-1.1,0.9-1.4
		c0.1-0.1,0.3-0.3,0.3-0.3c0.1-0.1,0.1-0.1,0.1-0.1l0,0c0,0,0.2,0.2,0.3,0.5c0.2,0.5,0.4,1.2,0.5,2.3c0.1,1.1,0.2,2.5,0.2,4.4
		c0,1.4,0.5,2.7,1.1,3.9c1.8,3.5,5.1,6.3,5.2,13l0,0.1c0,1.9-1.2,4.1-2.5,6.4c-1.3,2.3-2.6,4.7-2.6,7.2c0,1,0.3,2.1,0.9,3.1
		c1.5,2.4,2.1,4.6,2.2,6.7c0,4-2.5,7.5-5.6,9.9c-3.2,2.4-7.1,3.8-9.7,3.8c-0.7,0-1.4-0.1-1.8-0.3c-0.1,0-0.3-0.2-0.7-0.5
		c-1.1-1.1-2.9-3.8-4.3-7c-1.5-3.2-2.7-6.9-2.7-10.2c0-1.7,0.3-3.2,1-4.6c0.7-1.3,1.8-2.5,3.4-3.4L336.8,178.7L336.8,178.7z"/>
	<polygon class="st16" points="357.7,241.4 337.5,241.4 329.1,214.5 366.1,214.5 357.7,241.4 	"/>
	<polygon class="st17" points="365.6,216.2 329.8,216.2 326.9,208.1 368.6,208.1 365.6,216.2 	"/>
	<path class="st16" d="M365.2,214.7H330c-0.9,0-1.6-0.5-1.9-1.3l-1.5-3.9c-0.5-1.4,0.5-2.9,1.9-2.9h38.2c1.5,0,2.5,1.5,1.9,2.9
		l-1.5,3.9C366.8,214.2,366.1,214.7,365.2,214.7L365.2,214.7z"/>
	<g>
		<defs>
			<polygon id="SVGID_1_" points="370,245.6 347.5,245.6 347.5,202.9 370,202.9 370,245.6 			"/>
		</defs>
		<clipPath id="SVGID_2_">
			<use xlink:href="#SVGID_1_"  style="overflow:visible;"/>
		</clipPath>
		<polygon class="st18" points="357.7,241.4 337.5,241.4 329.1,214.5 366.1,214.5 357.7,241.4 		"/>
		<polygon class="st19" points="365.6,216.2 329.8,216.2 326.9,208.1 368.6,208.1 365.6,216.2 		"/>
		<path class="st18" d="M365.2,214.7H330c-0.9,0-1.6-0.5-1.9-1.3l-1.5-3.9c-0.5-1.4,0.5-2.9,1.9-2.9h38.2c1.5,0,2.5,1.5,1.9,2.9
			l-1.5,3.9C366.8,214.2,366.1,214.7,365.2,214.7L365.2,214.7z"/>
	</g>
	<path class="st20" d="M194.4,133.7c-0.6-0.2-0.7-0.6-0.7-1.1c-0.1-0.5-0.1-1.1-0.2-1.6c-0.1-0.5-0.1-0.9-0.2-1.4l0.2,0
		c2,0,3.9,0,5.9,0l0.2,0l0.2,0c0.9,0,1.8,0,2.8,0c-0.1,0.5-0.1,0.9-0.2,1.4c-0.1,0.4-0.1,0.9-0.2,1.3c0,0.3-0.1,0.6-0.1,0.8
		c-0.1,0.3-0.3,0.5-0.6,0.6C199.2,133.7,196.8,133.7,194.4,133.7L194.4,133.7z"/>
	<path class="st21" d="M199.6,129.5l-0.2,0c-2,0-3.9,0-5.9,0l-0.2,0c-0.3,0-0.3,0-0.4-0.3c-0.1-0.9-0.2-1.8-0.3-2.7
		c-0.1-0.9-0.2-1.8-0.3-2.7c0-0.2-0.1-0.4-0.1-0.7c0-0.2,0-0.2,0.2-0.2l0.1,0l0.2,0c2.5,0,5,0,7.6,0l0.2,0c0,0.2,0,0.3,0,0.5
		c-0.1,0.4-0.1,0.9-0.2,1.3c-0.1,0.4-0.1,0.8-0.2,1.2c-0.1,0.4-0.1,0.9-0.2,1.3c-0.1,0.4-0.1,0.9-0.2,1.3
		C199.7,128.9,199.7,129.2,199.6,129.5L199.6,129.5z"/>
	<path class="st22" d="M193,117c0.2-0.4,0.4-0.8,0.6-1.1c0.2-0.3,0.4-0.5,0.8-0.5c2.4,0,4.8,0,7.2,0c0.4,0,0.6,0.2,0.8,0.5
		c0.2,0.3,0.3,0.7,0.5,1c0,0.1,0.1,0.1,0.2,0.1c0.2,0,0.5,0,0.7,0c0.5,0.1,0.7,0.3,0.8,0.8c0,0.6,0,1.2,0,1.8c0,0.5-0.3,0.7-0.8,0.8
		l-0.2,0c-1.2,0-2.4,0-3.7,0l0.1-0.1c0.2-0.2,0.4-0.3,0.4-0.6c0-0.6,0-1.2,0-1.8c0-0.4-0.4-0.7-0.7-0.8c-0.4,0-0.8,0-1.2,0
		c-1.4,0-2.9,0-4.3,0l-0.2,0c-0.1,0-0.3,0-0.4,0c-0.1-0.1-0.2,0-0.3,0C193.2,117,193.1,117.1,193,117L193,117z"/>
	<path class="st20" d="M199.9,120.4c1.2,0,2.4,0,3.7,0l0.2,0c-0.1,0.5-0.1,0.9-0.2,1.4c0,0.4-0.1,0.7-0.1,1.1c-0.7,0-1.5,0-2.2,0
		c-0.3,0-0.5,0-0.8,0l-0.2,0c-2.5,0-5,0-7.6,0l-0.2,0c-0.1-0.4-0.1-0.9-0.2-1.3c0-0.4-0.1-0.8-0.1-1.1c0.5,0,0.9,0,1.4,0
		c0.2,0,0.3,0,0.5,0c1.6,0,3.2,0,4.8,0C199.2,120.4,199.6,120.4,199.9,120.4L199.9,120.4z"/>
	<path class="st23" d="M200.5,122.9c0.3,0,0.5,0,0.8,0c0.7,0,1.5,0,2.2,0c0.3,0,0.3,0,0.3,0.3c-0.1,0.8-0.2,1.6-0.3,2.4
		c-0.1,0.7-0.2,1.4-0.3,2.2c-0.1,0.5-0.1,1-0.2,1.6l0,0.2l0,0c-0.1,0-0.2,0-0.3,0c-0.9,0-1.9,0-2.8,0l-0.2,0c0-0.3,0.1-0.7,0.1-1
		c0.1-0.4,0.1-0.9,0.2-1.3c0.1-0.4,0.1-0.9,0.2-1.3c0.1-0.4,0.1-0.8,0.2-1.2c0.1-0.4,0.1-0.9,0.2-1.3
		C200.4,123.2,200.5,123,200.5,122.9L200.5,122.9z"/>
	<path class="st24" d="M193.6,120.4c-0.5,0-0.9,0-1.4,0l-0.2,0c-0.4-0.1-0.6-0.4-0.6-0.8c0-0.5,0-1.1,0-1.6c0-0.5,0.4-0.8,0.9-0.9
		c0.2,0,0.4,0,0.6,0l0.2-0.1c0.1,0.1,0.2,0,0.3,0c0.1,0,0.2,0,0.3,0l-0.1,0c-0.4,0.1-0.5,0.4-0.5,0.8c0,0.5,0,1.1,0,1.6
		c0,0.3,0.1,0.6,0.4,0.7L193.6,120.4L193.6,120.4z"/>
	<polygon class="st21" points="202.9,129.6 203,129.5 202.9,129.6 	"/>
	<path class="st24" d="M199.9,120.4c-0.3,0-0.7,0-1,0c-1.6,0-3.2,0-4.8,0l0.1-0.1c0.3-0.2,0.5-0.5,0.5-0.8c0-0.5,0-1.1,0-1.6
		c0-0.2-0.1-0.4-0.2-0.5c-0.1-0.1-0.3-0.2-0.4-0.3l0.2,0c1.4,0,2.9,0,4.3,0c0.4,0,0.8,0,1.2,0c0.4,0,0.7,0.4,0.7,0.8
		c0,0.6,0,1.2,0,1.8c0,0.3-0.2,0.5-0.4,0.6L199.9,120.4L199.9,120.4z"/>
	<path class="st21" d="M194,117.1c0.1,0.1,0.3,0.1,0.4,0.3c0.1,0.1,0.2,0.3,0.2,0.5c0,0.5,0,1.1,0,1.6c0,0.4-0.2,0.7-0.5,0.8
		l-0.1,0.1c-0.2,0-0.3,0-0.5,0l-0.1-0.1c-0.3-0.2-0.4-0.4-0.4-0.7c0-0.5,0-1.1,0-1.6c0-0.4,0.2-0.7,0.5-0.8l0.1,0
		C193.7,117.1,193.9,117.1,194,117.1L194,117.1z"/>
</g>
</svg>
